<svg xmlns="http://www.w3.org/2000/svg" xmlns:xlink="http://www.w3.org/1999/xlink" width="811.315" height="479.947" viewBox="0 0 811.315 479.947"><defs><clipPath id="a"><path d="M142.3,70.292a11.779,11.779,0,0,1-10.085-11.633v-.03a11.795,11.795,0,1,1,11.805,11.787,11.974,11.974,0,0,1-1.721-.125" transform="translate(-132.219 -46.822)" fill="#f6f6f6"/></clipPath><clipPath id="b"><path d="M185.154,99.432a9.421,9.421,0,1,1,1.661.1c-.109,0-.219.007-.331.007a9.185,9.185,0,0,1-1.331-.1" transform="translate(-177.074 -80.66)" fill="#f6f6f6"/></clipPath><clipPath id="c"><path d="M180.425,65.87c-.232-.035-.462-.072-.691-.125a12.5,12.5,0,0,1-6.152-3.193A12.422,12.422,0,0,1,171.4,59.8a12.449,12.449,0,0,1-1.612-8.2c.054-.367.123-.742.211-1.1a12.592,12.592,0,0,1,11.83-9.664,12.312,12.312,0,0,1,2.216.128,12.125,12.125,0,0,1,1.712.37,12.54,12.54,0,0,1,7.81,6.614,12.465,12.465,0,0,1,1.123,7.269,12.587,12.587,0,0,1-10.744,10.664,12.7,12.7,0,0,1-3.518-.015" transform="translate(-169.654 -40.833)" fill="#f6f6f6"/></clipPath><clipPath id="d"><path d="M227.792,127.494l-.339-.064a6.276,6.276,0,0,1-4.9-4.808,6.2,6.2,0,0,1-.081-2.272A6.287,6.287,0,1,1,234.2,124.3l-1.2,1.549a6.315,6.315,0,0,1-4.308,1.716,6.223,6.223,0,0,1-.9-.066" transform="translate(-222.41 -114.971)" fill="#f6f6f6"/></clipPath><clipPath id="e"><path d="M224.414,94.025a10.134,10.134,0,0,1-1.344-.1,9.512,9.512,0,0,1-2.377-.668,9.318,9.318,0,0,1-2.844-1.9,9.563,9.563,0,0,1-2.049-2.925,9.4,9.4,0,0,1-.791-4.542c.015-.217.041-.438.072-.651a9.443,9.443,0,0,1,10.7-7.991l.235.038a9.453,9.453,0,0,1,5.882,3.55,9.4,9.4,0,0,1,1.86,7.117,9.448,9.448,0,0,1-3.388,5.959,9.421,9.421,0,0,1-5.935,2.11Z" transform="translate(-214.982 -75.151)" fill="#f6f6f6"/></clipPath><clipPath id="f"><path d="M218.338,60.363c-.329-.049-.648-.115-.967-.186a12.576,12.576,0,0,1-6.058-3.3,12.7,12.7,0,0,1-3.52-6.575,12.563,12.563,0,0,1-.09-4.2,12.393,12.393,0,0,1,.372-1.724,12.595,12.595,0,0,1,11.337-9.024,12.436,12.436,0,0,1,2.546.114,12.538,12.538,0,0,1,7.343,3.823,12.748,12.748,0,0,1,2.054,2.913,12.527,12.527,0,0,1,1.235,7.515,12.784,12.784,0,0,1-.87,3.125A12.607,12.607,0,0,1,221.5,60.422c-.446.044-.9.067-1.354.067a12.765,12.765,0,0,1-1.811-.127" transform="translate(-207.567 -35.326)" fill="#f6f6f6"/></clipPath><clipPath id="g"><path d="M270.43,155.547a3.08,3.08,0,0,1-1.783-.9,3.14,3.14,0,0,1,2.686-5.318,3.247,3.247,0,0,1,1.142.395,3.134,3.134,0,0,1,.189,5.308,3.187,3.187,0,0,1-1.781.548,3.233,3.233,0,0,1-.452-.031" transform="translate(-267.736 -149.294)" fill="#f6f6f6"/></clipPath><clipPath id="h"><path d="M265.9,123.071a7.052,7.052,0,0,1-3.962-1.974,7.168,7.168,0,0,1-1.852-3.178,7.086,7.086,0,0,1,6.945-8.93,6.246,6.246,0,0,1,.9.072,7.024,7.024,0,0,1,2.63.938,7.173,7.173,0,0,1,2.428,2.428,7.018,7.018,0,0,1,.975,4.3l-.041.355a7.078,7.078,0,0,1-4.622,5.65,6.96,6.96,0,0,1-2.374.413,7.083,7.083,0,0,1-1.031-.074" transform="translate(-259.837 -108.988)" fill="#f6f6f6"/></clipPath><clipPath id="i"><path d="M261.744,89.568c-.192-.018-.385-.035-.577-.064a10.039,10.039,0,0,1-2.982-.915,10.489,10.489,0,0,1-2.781-1.977,10.313,10.313,0,0,1-2.036-2.931,10.12,10.12,0,0,1-.947-4.336,9.8,9.8,0,0,1,.1-1.428,10.212,10.212,0,0,1,7.558-8.427,10.069,10.069,0,0,1,4.025-.219l.41.069a10.214,10.214,0,0,1,8.247,11.519l-.02.109a10.217,10.217,0,0,1-6.068,7.812,10.1,10.1,0,0,1-4.01.829c-.3,0-.612-.013-.921-.041" transform="translate(-252.419 -69.163)" fill="#f6f6f6"/></clipPath><clipPath id="j"><path d="M256.438,55.944a13.109,13.109,0,0,1-1.628-.344,13.5,13.5,0,0,1-3.247-1.377,13.373,13.373,0,0,1-6.422-13.435c.033-.224.072-.447.118-.669a13.326,13.326,0,0,1,15.023-10.636,14.382,14.382,0,0,1,1.614.336,13.513,13.513,0,0,1,3.254,1.375,13.234,13.234,0,0,1,2.694,2.091,13.748,13.748,0,0,1,2.14,2.8,13.5,13.5,0,0,1,1.436,3.711,13.251,13.251,0,0,1,.181,4.838c-.03.211-.064.415-.1.614a13.354,13.354,0,0,1-7.433,9.557,13.128,13.128,0,0,1-5.3,1.27c-.155,0-.308.008-.464.008a12.993,12.993,0,0,1-1.86-.137" transform="translate(-245 -29.34)" fill="#f6f6f6"/></clipPath><clipPath id="k"><path d="M313.26,184.689a.79.79,0,0,1-.52-.321.765.765,0,0,1-.135-.564.778.778,0,0,1,.88-.666,1.023,1.023,0,0,1,.176.041.789.789,0,0,1,.49.85.774.774,0,0,1-.773.668,1.013,1.013,0,0,1-.118-.008" transform="translate(-312.597 -183.13)" fill="#f6f6f6"/></clipPath><clipPath id="l"><path d="M309.221,152.264c-.161-.01-.327-.018-.493-.043a4.717,4.717,0,0,1-3.987-5.3l.007-.049a4.716,4.716,0,1,1,4.671,5.4q-.1,0-.2,0" transform="translate(-304.697 -142.824)" fill="#f6f6f6"/></clipPath><clipPath id="m"><path d="M304,118.649a7.942,7.942,0,0,1-1.65-.429,7.87,7.87,0,0,1-5-8.491,7.863,7.863,0,0,1,8.183-6.714,6.066,6.066,0,0,1,.729.071,7.956,7.956,0,0,1,2.79.961,7.883,7.883,0,0,1,3.915,6.068,7.751,7.751,0,0,1-.046,1.878,7.866,7.866,0,0,1-6.576,6.645,8.2,8.2,0,0,1-1.212.092,8,8,0,0,1-1.132-.081" transform="translate(-297.271 -103.003)" fill="#f6f6f6"/></clipPath><clipPath id="n"><path d="M299.276,85.079l-.161-.023a11.115,11.115,0,0,1-3.425-1.15,10.888,10.888,0,0,1-2.726-2.053,11.03,11.03,0,0,1-2.04-2.93A11,11,0,0,1,302.44,63.292c.191.028.378.054.566.092a10.972,10.972,0,0,1,3.342,1.25,11.011,11.011,0,0,1,4.617,5.175,10.936,10.936,0,0,1,.9,4.4,11.221,11.221,0,0,1-.117,1.561,11,11,0,0,1-8.162,9.086,10.884,10.884,0,0,1-2.707.34,11.344,11.344,0,0,1-1.607-.117" transform="translate(-289.852 -63.175)" fill="#f6f6f6"/></clipPath><clipPath id="o"><path d="M296.061,51.649a14.469,14.469,0,0,1-1.517-.138,13.286,13.286,0,0,1-2.283-.531,13.819,13.819,0,0,1-3.175-1.469,14.145,14.145,0,0,1-6.532-13.817l.031-.229a14.144,14.144,0,0,1,8.79-11.123,14.277,14.277,0,0,1,9-.47,13.421,13.421,0,0,1,3.26,1.365,14.126,14.126,0,0,1,7.075,13.116c-.025.391-.064.79-.12,1.181a14.152,14.152,0,0,1-9.7,11.452,13.815,13.815,0,0,1-4.264.674c-.189,0-.377,0-.566-.012" transform="translate(-282.436 -23.351)" fill="#f6f6f6"/></clipPath><clipPath id="p"><path d="M351.568,181.36a2.353,2.353,0,0,1-1.992-2.666,2.365,2.365,0,0,1,2.67-2,2.43,2.43,0,0,1,.712.22,2.36,2.36,0,0,1-1.041,4.474,2.507,2.507,0,0,1-.349-.025" transform="translate(-349.551 -176.666)" fill="#f6f6f6"/></clipPath><clipPath id="q"><path d="M346.839,147.794l-.234-.038a5.515,5.515,0,0,1-4.476-5.361,5.878,5.878,0,0,1,.056-.834,5.528,5.528,0,0,1,4.138-4.566,5.625,5.625,0,0,1,2.1-.1,5.418,5.418,0,0,1,1.824.61,5.536,5.536,0,0,1,2.372,2.512,5.5,5.5,0,0,1-4.979,7.833,5.758,5.758,0,0,1-.8-.058" transform="translate(-342.13 -136.84)" fill="#f6f6f6"/></clipPath><clipPath id="r"><path d="M342.113,114.224a8.571,8.571,0,0,1-5.058-2.638,8.76,8.76,0,0,1-1.888-3.138,8.623,8.623,0,0,1-.365-4.032,8.782,8.782,0,0,1,.36-1.517,8.655,8.655,0,0,1,8.876-5.856c.188.013.372.035.564.063a8.581,8.581,0,0,1,2.936.987,8.665,8.665,0,0,1,4.259,5.635,8.658,8.658,0,0,1-8.224,10.586c-.059,0-.118,0-.178,0a8.706,8.706,0,0,1-1.281-.092" transform="translate(-334.709 -97.015)" fill="#f6f6f6"/></clipPath><clipPath id="s"><path d="M337.385,80.66c-.293-.043-.582-.1-.86-.164a11.734,11.734,0,0,1-6-3.388,12.1,12.1,0,0,1-2.04-2.936,11.8,11.8,0,0,1,8.775-16.844,11.866,11.866,0,0,1,3.515-.015c.24.035.48.079.716.123a12.006,12.006,0,0,1,3.349,1.252,11.777,11.777,0,0,1,2.7,2.077,12.024,12.024,0,0,1,2.064,2.9,11.809,11.809,0,0,1,1.2,4.014,11.967,11.967,0,0,1-.054,3.015,11.789,11.789,0,0,1-13.368,9.971" transform="translate(-327.287 -57.189)" fill="#f6f6f6"/></clipPath><clipPath id="t"><path d="M333.408,47.168c-.253-.021-.5-.048-.75-.084a15.02,15.02,0,0,1-6.04-2.291A14.682,14.682,0,0,1,324,42.61a14.921,14.921,0,0,1-3.624-6.453,14.665,14.665,0,0,1-.462-4.958c.02-.347.059-.7.112-1.054a14.991,14.991,0,0,1,16.932-12.629,15.487,15.487,0,0,1,1.91.406,14.959,14.959,0,0,1,3.265,1.36,15.318,15.318,0,0,1,2.765,1.994,15.731,15.731,0,0,1,2.278,2.63,15.385,15.385,0,0,1,1.707,3.36,14.951,14.951,0,0,1-1.27,12.741l-2.145,2.765a15.007,15.007,0,0,1-7.535,4.137,14.657,14.657,0,0,1-3.082.329c-.477,0-.957-.025-1.439-.071" transform="translate(-319.866 -17.366)" fill="#f6f6f6"/></clipPath><clipPath id="u"><path d="M394.6,211.58a.808.808,0,0,1-.566-.368.8.8,0,0,1-.1-.523.775.775,0,0,1,.895-.653l.107.02a.769.769,0,0,1,.558.86.788.788,0,0,1-.778.673.649.649,0,0,1-.112-.008" transform="translate(-393.925 -210.026)" fill="#f6f6f6"/></clipPath><clipPath id="v"><path d="M389.873,178.018A3.928,3.928,0,1,1,391,170.243a4.063,4.063,0,0,1,1.244.4,3.958,3.958,0,0,1,2.071,2.892,4.083,4.083,0,0,1,0,1.168,3.929,3.929,0,0,1-3.512,3.344c-.122.012-.245.016-.37.016a3.645,3.645,0,0,1-.564-.041" transform="translate(-386.508 -170.202)" fill="#f6f6f6"/></clipPath><clipPath id="w"><path d="M385.144,144.465a7.082,7.082,0,0,1-4.18-2.209,7.082,7.082,0,0,1,4.918-11.879,7.085,7.085,0,0,1,7.351,7.2,7.2,7.2,0,0,1-.071.89,7.1,7.1,0,0,1-5.139,5.815,7.181,7.181,0,0,1-1.875.252,6.954,6.954,0,0,1-1.005-.072" transform="translate(-379.086 -130.371)" fill="#f6f6f6"/></clipPath><clipPath id="x"><path d="M380.622,110.921l-.207-.03a10.212,10.212,0,0,1-5.981-3.124,10.308,10.308,0,0,1-1.969-3.023,10.165,10.165,0,0,1-.78-4.55c.015-.294.044-.6.089-.9a10.214,10.214,0,0,1,11.58-8.642l.059.008a10.115,10.115,0,0,1,3.418,1.158,10.154,10.154,0,0,1,4.579,5.216,10.078,10.078,0,0,1,.656,4.713l-.058.487a10.231,10.231,0,0,1-6.66,8.16,10.369,10.369,0,0,1-4.727.525" transform="translate(-371.667 -90.547)" fill="#f6f6f6"/></clipPath><clipPath id="y"><path d="M375.5,76.237a11.93,11.93,0,0,1-1.54-.321,12.561,12.561,0,0,1-3.232-1.4,12.739,12.739,0,0,1-4.673-5.1,12.656,12.656,0,0,1-1.224-3.977,12.6,12.6,0,0,1,11-14.151,12.734,12.734,0,0,1,3.286.043c.294.043.582.1.87.166a12.136,12.136,0,0,1,3.346,1.247,12.361,12.361,0,0,1,2.745,2.025,12.6,12.6,0,0,1,3.566,6.527,12.59,12.59,0,0,1,.114,4.3,13.394,13.394,0,0,1-.313,1.513,12.633,12.633,0,0,1-11.511,9.248c-.194.01-.39.013-.584.013a12.876,12.876,0,0,1-1.852-.135" transform="translate(-364.72 -51.201)" fill="#f6f6f6"/></clipPath><clipPath id="z"><path d="M370.769,42.672h0a15.955,15.955,0,0,1-3.576-.957,15.586,15.586,0,0,1-5.639-3.854,15.711,15.711,0,0,1-4.245-11.2,16.444,16.444,0,0,1,.158-1.818,15.731,15.731,0,0,1,19.883-12.856,15.633,15.633,0,0,1,6.066,3.311,15.84,15.84,0,0,1,2.331,2.559,16.045,16.045,0,0,1,1.811,3.221,15.663,15.663,0,0,1,1.043,8.289,15.917,15.917,0,0,1-.437,2.045,15.717,15.717,0,0,1-13.1,11.3,15.516,15.516,0,0,1-4.295-.03" transform="translate(-357.3 -11.376)" fill="#f6f6f6"/></clipPath><clipPath id="aa"><path d="M432.9,208.26a2.364,2.364,0,0,1,.679-4.68,2.6,2.6,0,0,1,.656.192,2.366,2.366,0,0,1-1,4.512,2.351,2.351,0,0,1-.339-.025" transform="translate(-430.882 -203.556)" fill="#f6f6f6"/></clipPath><clipPath id="ab"><path d="M428.175,174.681l-.3-.054a5.518,5.518,0,0,1-4.41-5.438,5.292,5.292,0,0,1,.056-.737,5.506,5.506,0,1,1,4.657,6.229" transform="translate(-423.462 -163.738)" fill="#f6f6f6"/></clipPath><clipPath id="ac"><path d="M423.444,141.128a8.658,8.658,0,0,1-7.308-9.8,9.044,9.044,0,0,1,.421-1.7,8.665,8.665,0,0,1,8.747-5.688c.207.015.419.036.628.066a8.655,8.655,0,0,1,7.172,6.566,8.641,8.641,0,0,1-8.277,10.641c-.077,0-.155,0-.23,0a7.864,7.864,0,0,1-1.153-.082" transform="translate(-416.045 -123.911)" fill="#f6f6f6"/></clipPath><clipPath id="ad"><path d="M418.521,106.466l-.5-.087a10.986,10.986,0,0,1-3.354-1.232A11.062,11.062,0,0,1,410.027,100a11,11,0,0,1-.926-4.362,11.142,11.142,0,0,1,.117-1.658,10.987,10.987,0,0,1,12.47-9.3l.22.041a10.956,10.956,0,0,1,6.132,3.219,11.247,11.247,0,0,1,2.03,2.939,11.044,11.044,0,0,1,1.04,4.219,11.023,11.023,0,0,1-8.747,11.249,11.1,11.1,0,0,1-3.841.118" transform="translate(-409.101 -84.564)" fill="#f6f6f6"/></clipPath><clipPath id="ae"><path d="M414.939,73.018c-.38-.021-.76-.063-1.143-.118a14.156,14.156,0,0,1-2.594-.63,13.849,13.849,0,0,1-3.125-1.54,14.207,14.207,0,0,1-4.683-5.084,14.08,14.08,0,0,1-1.566-8.785l.063-.393a14.129,14.129,0,0,1,15.977-11.578c.492.071.967.164,1.441.281a14.1,14.1,0,0,1,3.309,1.3,14.079,14.079,0,0,1,5.037,4.637,14.192,14.192,0,0,1,2.336,8.109,14.159,14.159,0,0,1-14.136,13.832c-.3,0-.607-.008-.915-.03" transform="translate(-401.678 -44.739)" fill="#f6f6f6"/></clipPath><clipPath id="af"><path d="M476.132,239.574a1.576,1.576,0,0,1,.452-3.119,1.438,1.438,0,0,1,.449.133,1.565,1.565,0,0,1,.883,1.647,1.587,1.587,0,0,1-1.561,1.355,1.477,1.477,0,0,1-.224-.016" transform="translate(-474.784 -236.438)" fill="#f6f6f6"/></clipPath><clipPath id="ag"><path d="M471.754,206.051c-.117-.012-.234-.025-.35-.043a4.719,4.719,0,0,1-3.992-5.351l.026-.173a4.74,4.74,0,0,1,5.324-3.824,4.728,4.728,0,0,1,3.806,3.2,4.731,4.731,0,0,1-4.477,6.2c-.112,0-.224,0-.337-.012" transform="translate(-467.362 -196.612)" fill="#f6f6f6"/></clipPath><clipPath id="ah"><path d="M466.484,171.339a7.4,7.4,0,0,1-1.378-.337,7.2,7.2,0,0,1-2.844-1.9,7.12,7.12,0,0,1-1.7-3.365,6.945,6.945,0,0,1-.066-2.41,7.065,7.065,0,0,1,6.64-6.043,6.968,6.968,0,0,1,3.683.813,7.076,7.076,0,0,1,2.545,2.285,7,7,0,0,1,1.225,3.986,7.3,7.3,0,0,1-.077,1,7.08,7.08,0,0,1-7,6.048,7.143,7.143,0,0,1-1.02-.074" transform="translate(-460.417 -157.274)" fill="#f6f6f6"/></clipPath><clipPath id="ai"><path d="M461.9,137.807l-.145-.015a10.315,10.315,0,0,1-3.319-1.087,10.219,10.219,0,0,1-5.418-9.69c.02-.27.044-.544.086-.816a10.235,10.235,0,0,1,11.588-8.65h0a10.217,10.217,0,0,1,8.713,11.008c-.02.2-.038.388-.067.584a10.214,10.214,0,0,1-6.756,8.183,10.037,10.037,0,0,1-3.339.572,10.369,10.369,0,0,1-1.347-.089" transform="translate(-452.995 -117.443)" fill="#f6f6f6"/></clipPath><clipPath id="aj"><path d="M456.83,103.13a13.19,13.19,0,0,1-1.61-.342A12.526,12.526,0,0,1,452,101.376a12.83,12.83,0,0,1-2.629-2.179A12.58,12.58,0,0,1,457.061,78.2a12.386,12.386,0,0,1,3.388.03c.268.039.531.09.791.143a12.489,12.489,0,0,1,6.119,3.242,12.933,12.933,0,0,1,2.17,2.765,12.58,12.58,0,0,1-10.354,18.868c-.174.007-.35.01-.526.01a12.646,12.646,0,0,1-1.818-.132" transform="translate(-446.056 -78.101)" fill="#f6f6f6"/></clipPath><clipPath id="ak"><path d="M452.1,69.569l-.058-.008a15.814,15.814,0,0,1-3.563-.97,15.465,15.465,0,0,1-3.046-1.635,15.688,15.688,0,0,1-2.581-2.235,16.1,16.1,0,0,1-2.107-2.844,15.726,15.726,0,0,1-1.523-3.6,15.526,15.526,0,0,1-.579-4.81,15.73,15.73,0,0,1,17.98-15.033,16.162,16.162,0,0,1,2.005.423,15.491,15.491,0,0,1,3.28,1.344,15.758,15.758,0,0,1,5.134,4.505,15.625,15.625,0,0,1,2.93,7.338,15.8,15.8,0,0,1-.043,4.221,16.224,16.224,0,0,1-.4,1.9A15.728,15.728,0,0,1,454.354,69.73a15.589,15.589,0,0,1-2.252-.161" transform="translate(-438.635 -38.274)" fill="#f6f6f6"/></clipPath><clipPath id="al"><path d="M519.551,271.968a1.569,1.569,0,1,1,.452-3.106,1.535,1.535,0,0,1,.607.224,1.564,1.564,0,0,1,.717,1.551,1.581,1.581,0,0,1-1.556,1.347,1.675,1.675,0,0,1-.22-.016" transform="translate(-518.207 -268.845)" fill="#f6f6f6"/></clipPath><clipPath id="am"><path d="M514.631,237.324A3.938,3.938,0,1,1,519.1,233a3.794,3.794,0,0,1-.013.992,3.927,3.927,0,0,1-3.352,3.336,3.732,3.732,0,0,1-.528.038,3.982,3.982,0,0,1-.573-.043" transform="translate(-511.262 -229.496)" fill="#f6f6f6"/></clipPath><clipPath id="an"><path d="M509.708,202.667a7.617,7.617,0,0,1-.79-.163,6.3,6.3,0,0,1-4.551-5.26,6.449,6.449,0,0,1,.015-1.706,6.3,6.3,0,0,1,7.134-5.32,6.1,6.1,0,0,1,2.092.7,6.282,6.282,0,0,1,3.224,6.43c-.036.243-.084.48-.143.716a6.3,6.3,0,0,1-6.981,4.606" transform="translate(-504.318 -190.154)" fill="#f6f6f6"/></clipPath><clipPath id="ao"><path d="M505.805,169.182c-.275-.021-.551-.046-.826-.086a9.472,9.472,0,0,1-5.515-2.867,9.479,9.479,0,0,1-1.931-3.071,9.361,9.361,0,0,1-.533-4.749l.021-.148a9.409,9.409,0,0,1,10.432-7.864l.239.03a9.384,9.384,0,0,1,3.216,1.081,9.426,9.426,0,0,1,4.754,9.614,9.8,9.8,0,0,1-.283,1.3,9.437,9.437,0,0,1-9.042,6.777c-.176,0-.354,0-.531-.015" transform="translate(-496.901 -150.328)" fill="#f6f6f6"/></clipPath><clipPath id="ap"><path d="M500.059,134.452c-.336-.049-.669-.107-1-.184a11.764,11.764,0,0,1-5.953-3.459,12.092,12.092,0,0,1-2.015-2.957,11.749,11.749,0,0,1-1.105-4.135,11.608,11.608,0,0,1,.084-2.632,11.788,11.788,0,0,1,13.379-9.983c.2.028.39.061.582.1a11.844,11.844,0,0,1,3.374,1.216,11.8,11.8,0,0,1,4.811,4.926,11.681,11.681,0,0,1,1.238,3.961,11.807,11.807,0,0,1-1.729,7.779l-1.387,1.786a11.883,11.883,0,0,1-7.135,3.624,11.927,11.927,0,0,1-3.148-.039" transform="translate(-489.95 -110.977)" fill="#f6f6f6"/></clipPath><clipPath id="aq"><path d="M496.193,99.906c-.352-.026-.706-.059-1.061-.11a14.364,14.364,0,0,1-5.775-2.2,14.153,14.153,0,0,1-6.195-13.86l.086-.508A14.148,14.148,0,0,1,499.2,71.778a12.82,12.82,0,0,1,1.368.268,14.3,14.3,0,0,1,3.326,1.28,14.086,14.086,0,0,1,5.051,4.617,14.048,14.048,0,0,1,2.369,8.063,14.215,14.215,0,0,1-10.447,13.439,13.99,13.99,0,0,1-3.691.493c-.327,0-.656-.01-.985-.033" transform="translate(-483.014 -71.631)" fill="#f6f6f6"/></clipPath><clipPath id="ar"><path d="M490.21,65.147c-.262-.038-.52-.084-.776-.132a16.45,16.45,0,0,1-3.479-1.079,16.654,16.654,0,0,1-5.547-3.972,16.118,16.118,0,0,1-2.1-2.862,16.341,16.341,0,0,1-2.242-8.219,16.7,16.7,0,0,1,.173-2.451,16.449,16.449,0,0,1,2.2-6.157l2.369-3.05a16.5,16.5,0,0,1,12.46-4.926c.561.03,1.122.081,1.689.163a16.262,16.262,0,0,1,2.148.459,16.725,16.725,0,0,1,3.285,1.329,16.39,16.39,0,0,1,2.824,1.926,16.226,16.226,0,0,1,2.39,2.479,16.484,16.484,0,0,1,3.334,12.383l-.021.143A16.507,16.507,0,0,1,498.77,64.118a16.284,16.284,0,0,1-5.234,1.173c-.324.02-.648.031-.975.031a16.32,16.32,0,0,1-2.351-.174" transform="translate(-476.069 -32.285)" fill="#f6f6f6"/></clipPath><clipPath id="as"><path d="M562.97,304.372a1.568,1.568,0,1,1,.452-3.1,1.576,1.576,0,0,1,.765.331,1.566,1.566,0,0,1-.984,2.79,1.6,1.6,0,0,1-.233-.016" transform="translate(-561.623 -301.251)" fill="#f6f6f6"/></clipPath><clipPath id="at"><path d="M558.046,269.719a3.865,3.865,0,0,1-2.148-1.048,3.925,3.925,0,0,1-1.173-3.4,4.085,4.085,0,0,1,.281-1l1.191-1.531a3.93,3.93,0,0,1,6.343,2.948,3.925,3.925,0,0,1-3.1,3.991,3.721,3.721,0,0,1-.814.09,4.037,4.037,0,0,1-.576-.043" transform="translate(-554.684 -261.903)" fill="#f6f6f6"/></clipPath><clipPath id="au"><path d="M553.122,235.082c-.2-.03-.393-.072-.586-.115a6.223,6.223,0,0,1-2.994-1.711,6.3,6.3,0,0,1,3.992-10.69,6.544,6.544,0,0,1,1.4.048,6.3,6.3,0,0,1-.908,12.534,6.238,6.238,0,0,1-.9-.066" transform="translate(-547.74 -222.549)" fill="#f6f6f6"/></clipPath><clipPath id="av"><path d="M548.2,200.424a8.662,8.662,0,0,1-5.01-2.584,8.693,8.693,0,0,1-1.9-3.1,8.591,8.591,0,0,1-.4-4.12,8.649,8.649,0,0,1,4.056-6.145,8.584,8.584,0,0,1,5.275-1.227l.472.049a8.6,8.6,0,0,1,3.009,1.031,8.652,8.652,0,0,1-3.938,16.182c-.1,0-.2,0-.3,0a8.906,8.906,0,0,1-1.263-.09" transform="translate(-540.796 -183.209)" fill="#f6f6f6"/></clipPath><clipPath id="aw"><path d="M543.277,165.766l-.354-.058a11,11,0,0,1-3.388-1.2,10.872,10.872,0,0,1-2.689-2.091,11.147,11.147,0,0,1-2-2.979,11.012,11.012,0,0,1,11.6-15.464l.372.059a10.934,10.934,0,0,1,6.073,3.3,10.931,10.931,0,0,1,2.987,7.267,11.264,11.264,0,0,1-.114,1.854,11.012,11.012,0,0,1-8.44,9.147,10.816,10.816,0,0,1-2.441.28,11.33,11.33,0,0,1-1.6-.117" transform="translate(-533.853 -143.859)" fill="#f6f6f6"/></clipPath><clipPath id="ax"><path d="M540.141,131.25a12.666,12.666,0,0,1-1.785-.137,13.476,13.476,0,0,1-5.237-1.939,13.43,13.43,0,0,1-4.683-5.094,13.321,13.321,0,0,1-1.388-8.121,13.531,13.531,0,0,1,.345-1.648,13.318,13.318,0,0,1,6.246-8.025,13.34,13.34,0,0,1,8.562-1.63c.393.058.783.133,1.17.219a13.192,13.192,0,0,1,3.326,1.278,13.372,13.372,0,0,1,6.512,8.29,13.234,13.234,0,0,1,.341,5.119l-.033.243a13.367,13.367,0,0,1-13.205,11.447l-.169,0" transform="translate(-526.906 -104.515)" fill="#f6f6f6"/></clipPath><clipPath id="ay"><path d="M533.429,96.467l-.13-.018a16.6,16.6,0,0,1-3.555-.98,15.783,15.783,0,0,1-7.7-6.764,15.672,15.672,0,0,1-2.059-8.453,15.967,15.967,0,0,1,.153-1.617A15.723,15.723,0,0,1,536.02,65.171a16.878,16.878,0,0,1,1.933.169,15.524,15.524,0,0,1,5.231,1.729,15.692,15.692,0,0,1,2.809,1.938,16.012,16.012,0,0,1,2.342,2.541,15.84,15.84,0,0,1,1.834,3.2,15.642,15.642,0,0,1,1.087,8.407,15.247,15.247,0,0,1-.359,1.76,15.719,15.719,0,0,1-17.469,11.552" transform="translate(-519.969 -65.168)" fill="#f6f6f6"/></clipPath><clipPath id="az"><path d="M530.528,61.991a18.492,18.492,0,0,1-2.02-.181,18.892,18.892,0,0,1-1.865-.368,18.34,18.34,0,0,1-3.369-1.225,17.906,17.906,0,0,1-2.938-1.77,18.249,18.249,0,0,1-2.538-2.288,17.8,17.8,0,0,1-2.125-2.828,17.952,17.952,0,0,1-2.457-12.011,17.708,17.708,0,0,1,.413-2.02,18.1,18.1,0,0,1,14.615-13.246,17.541,17.541,0,0,1,4.443-.158c.342.03.683.074,1.023.123a18.748,18.748,0,0,1,2.722.605,17.975,17.975,0,0,1,3.262,1.365,18.263,18.263,0,0,1,2.841,1.9A18.093,18.093,0,0,1,535.2,61.537a18.186,18.186,0,0,1-4.076.466c-.2,0-.4,0-.6-.012" transform="translate(-513.025 -25.823)" fill="#f6f6f6"/></clipPath><clipPath id="ba"><path d="M601.468,302.125a3.856,3.856,0,0,1-2.008-.921,3.906,3.906,0,0,1-1.314-3.527,4.53,4.53,0,0,1,.1-.462,3.908,3.908,0,0,1,1.874-2.4,3.851,3.851,0,0,1,2.484-.462,3.908,3.908,0,0,1,3.356,4.051,3.474,3.474,0,0,1-.038.4,3.917,3.917,0,0,1-2.757,3.2,4.062,4.062,0,0,1-1.127.161,3.845,3.845,0,0,1-.564-.041" transform="translate(-598.104 -294.309)" fill="#f6f6f6"/></clipPath><clipPath id="bb"><path d="M596.547,267.487a3.946,3.946,0,0,1-.391-.077,6.16,6.16,0,0,1-3.058-1.622,6.293,6.293,0,0,1-1.8-3.234,6.214,6.214,0,0,1-.074-2.211,6.306,6.306,0,0,1,5.974-5.385,6.294,6.294,0,0,1,3.586.949,6.283,6.283,0,0,1,2.309,8.137l-1.531,1.974a6.292,6.292,0,0,1-5.012,1.469" transform="translate(-591.155 -254.952)" fill="#f6f6f6"/></clipPath><clipPath id="bc"><path d="M591.623,232.819a9.009,9.009,0,0,1-2.031-.544,8.668,8.668,0,0,1-4.806-4.936,8.6,8.6,0,0,1-.477-4.324c.041-.276.094-.553.16-.821a8.653,8.653,0,0,1,9.391-6.525l.25.031a8.654,8.654,0,0,1-.686,17.2c-.165.01-.329.015-.5.015a9.249,9.249,0,0,1-1.3-.1" transform="translate(-584.218 -215.61)" fill="#f6f6f6"/></clipPath><clipPath id="bd"><path d="M586.7,198.172l-.158-.023a10.868,10.868,0,0,1-3.426-1.15,10.625,10.625,0,0,1-2.721-2.051,11,11,0,0,1,9.473-18.569c.188.028.38.056.568.094a11.072,11.072,0,0,1,3.341,1.26,10.915,10.915,0,0,1,2.655,2.138,11.03,11.03,0,0,1,1.956,3.041,10.855,10.855,0,0,1,.908,4.389,11.64,11.64,0,0,1-.117,1.556,11,11,0,0,1-10.891,9.43,10.849,10.849,0,0,1-1.587-.115" transform="translate(-577.273 -176.265)" fill="#f6f6f6"/></clipPath><clipPath id="be"><path d="M581.779,163.507a13.98,13.98,0,0,1-1.877-.41,12.847,12.847,0,0,1-3.2-1.431,13.032,13.032,0,0,1-2.652-2.143,13.3,13.3,0,0,1-3.578-11.161c.059-.41.14-.813.23-1.2a13.372,13.372,0,0,1,12.273-10.226,13.4,13.4,0,0,1,7.3,1.7A13.606,13.606,0,0,1,593,140.688a13.328,13.328,0,0,1,3.923,11.519l-.02.128a13.384,13.384,0,0,1-13.113,11.318,14.179,14.179,0,0,1-2.015-.146" transform="translate(-570.329 -136.917)" fill="#f6f6f6"/></clipPath><clipPath id="bf"><path d="M576.947,128.869l-.09-.008a15.728,15.728,0,0,1-9.165-4.752,15.718,15.718,0,0,1-2.115-2.829,15.48,15.48,0,0,1-1.556-3.553,15.733,15.733,0,0,1-.632-4.747,16.828,16.828,0,0,1,.163-1.944,15.725,15.725,0,0,1,11.373-12.9,15.544,15.544,0,0,1,4.755-.556,14.588,14.588,0,0,1,1.7.155,16.2,16.2,0,0,1,2.137.457,15.548,15.548,0,0,1,3.259,1.365,15.684,15.684,0,0,1,5.1,4.55,16.139,16.139,0,0,1,1.8,3.237,15.441,15.441,0,0,1,1.068,4.178,15.666,15.666,0,0,1-.064,4.033,15.355,15.355,0,0,1-.493,2.24,15.746,15.746,0,0,1-12.932,11.082,15.333,15.333,0,0,1-2.1.145,15.656,15.656,0,0,1-2.2-.156" transform="translate(-563.385 -97.572)" fill="#f6f6f6"/></clipPath><clipPath id="bg"><path d="M571.735,93.119c-.424-.063-.846-.137-1.255-.225a18.128,18.128,0,0,1-3.43-1.142,17.437,17.437,0,0,1-2.972-1.737,17.234,17.234,0,0,1-2.554-2.272,17.489,17.489,0,0,1-2.12-2.826,17.3,17.3,0,0,1-1.6-3.49,17.124,17.124,0,0,1-.85-4.463,17.657,17.657,0,0,1,.161-3.459A17.174,17.174,0,0,1,564.5,61.7a17.211,17.211,0,0,1,10.93-2.951q.637.042,1.278.137a17.323,17.323,0,0,1,2.5.554,17.29,17.29,0,0,1,6.091,3.282,17.514,17.514,0,0,1,2.41,2.454,17.831,17.831,0,0,1,1.957,3.035,17.287,17.287,0,0,1,1.383,3.772,17.066,17.066,0,0,1,.442,4.994c-.026.5-.077,1-.15,1.507A17.3,17.3,0,0,1,574.479,93.3l-.2,0a17.517,17.517,0,0,1-2.541-.186" transform="translate(-556.926 -58.701)" fill="#f6f6f6"/></clipPath><clipPath id="bh"><path d="M567.6,58.566c-.265-.033-.526-.061-.789-.1a19.744,19.744,0,0,1-2.943-.656,20.136,20.136,0,0,1-3.277-1.337,19.725,19.725,0,0,1-5.418-4.143,19.88,19.88,0,0,1-2.145-2.8,19.712,19.712,0,0,1-2.821-7.486,19.889,19.889,0,0,1-.079-5.456l.054-.4a19.657,19.657,0,0,1,12.3-15.488,19.7,19.7,0,0,1,9.565-1.2l.418.061a19.676,19.676,0,0,1,16.664,16.855,19.763,19.763,0,0,1-.043,5.42l-.038.243A19.633,19.633,0,0,1,577.4,57.077a19.862,19.862,0,0,1-5.453,1.467,20.6,20.6,0,0,1-2.283.128,19.727,19.727,0,0,1-2.056-.107" transform="translate(-549.982 -19.36)" fill="#f6f6f6"/></clipPath><clipPath id="bi"><path d="M620.85,160.273c-.257-.026-.512-.059-.768-.1a14.94,14.94,0,0,1-10.772-7.282,15,15,0,0,1-1.51-3.609,14.8,14.8,0,0,1-.472-4.954c.025-.362.066-.72.117-1.079a14.943,14.943,0,0,1,10.073-12.026,14.7,14.7,0,0,1,4.91-.768,15.084,15.084,0,0,1,1.951.158,15.527,15.527,0,0,1,1.931.406,14.887,14.887,0,0,1,6.02,3.367,15.153,15.153,0,0,1,2.272,2.635,14.928,14.928,0,0,1,2.559,7.815,14.531,14.531,0,0,1-.145,2.709,14.942,14.942,0,0,1-2.061,5.686l-1.974,2.538a14.888,14.888,0,0,1-10.746,4.563c-.459,0-.921-.02-1.385-.063" transform="translate(-607.286 -130.456)" fill="#f6f6f6"/></clipPath><clipPath id="bj"><path d="M615.161,125.525c-.355-.051-.7-.115-1.049-.181a17.576,17.576,0,0,1-3.459-1.105,17.405,17.405,0,0,1-7.723-6.734,17.989,17.989,0,0,1-1.64-3.441,17.2,17.2,0,0,1-.766-8.134,17.54,17.54,0,0,1,.66-2.841,17.26,17.26,0,0,1,17.9-11.914c.354.028.7.072,1.054.125a17.1,17.1,0,0,1,5.931,1.992,18.111,18.111,0,0,1,2.806,1.956,17.309,17.309,0,0,1,5.662,9.379,17.269,17.269,0,0,1,.368,5.079c-.033.4-.076.8-.133,1.2a17.294,17.294,0,0,1-11.6,13.9,17.054,17.054,0,0,1-5.012.888c-.165,0-.329.007-.492.007a17.169,17.169,0,0,1-2.5-.179" transform="translate(-600.341 -91.113)" fill="#f6f6f6"/></clipPath><clipPath id="bk"><path d="M611.506,89.945c-.484-.036-.977-.082-1.469-.155a19.688,19.688,0,0,1-2.346-.492,18.713,18.713,0,0,1-3.329-1.273,18.949,18.949,0,0,1-2.92-1.8,19.54,19.54,0,0,1-2.536-2.291,18.773,18.773,0,0,1-3.821-6.191,18.6,18.6,0,0,1-1.048-4.209,18.836,18.836,0,0,1,.044-5.14l.1-.6a18.841,18.841,0,0,1,20.642-15.44l.646.079a18.713,18.713,0,0,1,9.142,3.992,18.9,18.9,0,0,1,6.093,8.828,19.146,19.146,0,0,1,.877,4.425,18.906,18.906,0,0,1-15.569,20.028,19.277,19.277,0,0,1-3.245.278q-.627,0-1.257-.041" transform="translate(-593.883 -52.241)" fill="#f6f6f6"/></clipPath><clipPath id="bl"><path d="M605.116,55.142l-.39-.061a21.731,21.731,0,0,1-3.6-.923,21.052,21.052,0,0,1-6.055-3.316,20.237,20.237,0,0,1-2.512-2.323,21.247,21.247,0,0,1-5.172-10.014,21.348,21.348,0,0,1-.225-7.417,21.249,21.249,0,0,1,15.184-17.377,20.729,20.729,0,0,1,4.94-.8,21.127,21.127,0,0,1,3.94.2l.192.028a21.214,21.214,0,0,1,14.426,9.221,21.592,21.592,0,0,1,1.781,3.263,21.21,21.21,0,0,1,1.776,8.822,22.274,22.274,0,0,1-.225,2.744,21.234,21.234,0,0,1-15.465,17.437,20.777,20.777,0,0,1-4.877.719c-.23.007-.462.012-.692.012a20.94,20.94,0,0,1-3.023-.22" transform="translate(-586.938 -12.895)" fill="#f6f6f6"/></clipPath></defs><g transform="translate(0 398.048)"><g transform="translate(0 0)" clip-path="url(#a)"><rect width="34.491" height="34.491" transform="translate(13.085 -12.982) rotate(47.075)" fill="#f6f6f6"/></g></g><g transform="translate(73.781 347.109)"><g transform="translate(0 0)" clip-path="url(#b)"><rect width="27.639" height="27.642" transform="matrix(0.681, 0.732, -0.732, 0.681, 9.855, -10.42)" fill="#f6f6f6"/></g></g><g transform="translate(61.575 406.326)"><g transform="translate(0 0)" clip-path="url(#c)"><rect width="35.673" height="35.679" transform="matrix(0.681, 0.732, -0.732, 0.681, 13.473, -12.636)" fill="#f6f6f6"/></g></g><g transform="translate(148.353 296.956)"><g transform="translate(0 0)" clip-path="url(#d)"><rect width="17.903" height="17.911" transform="matrix(0.681, 0.732, -0.732, 0.681, 6.787, -6.363)" fill="#f6f6f6"/></g></g><g transform="translate(136.135 356.171)"><g transform="translate(0 0)" clip-path="url(#e)"><rect width="26.889" height="26.892" transform="translate(10.126 -9.626) rotate(47.075)" fill="#f6f6f6"/></g></g><g transform="translate(123.939 415.389)"><g transform="translate(0 0)" clip-path="url(#f)"><rect width="35.657" height="35.662" transform="translate(13.476 -12.631) rotate(47.075)" fill="#f6f6f6"/></g></g><g transform="translate(222.91 246.804)"><g transform="translate(0 0)" clip-path="url(#g)"><rect width="9.239" height="9.243" transform="matrix(0.681, 0.732, -0.732, 0.681, 3.412, -3.496)" fill="#f6f6f6"/></g></g><g transform="translate(209.917 305.23)"><g transform="translate(0 0)" clip-path="url(#h)"><rect width="20.185" height="20.192" transform="translate(7.624 -7.22) rotate(47.075)" fill="#f6f6f6"/></g></g><g transform="translate(197.715 364.449)"><g transform="translate(0 0)" clip-path="url(#i)"><rect width="29.07" height="29.073" transform="translate(11.036 -10.367) rotate(47.075)" fill="#f6f6f6"/></g></g><g transform="translate(185.512 423.658)"><g transform="translate(0 0)" clip-path="url(#j)"><rect width="37.941" height="37.951" transform="matrix(0.681, 0.732, -0.732, 0.681, 14.347, -13.453)" fill="#f6f6f6"/></g></g><g transform="translate(296.7 195.865)"><g transform="translate(0 0)" clip-path="url(#k)"><rect width="2.298" height="2.298" transform="matrix(0.681, 0.732, -0.732, 0.681, 0.852, -0.867)" fill="#f6f6f6"/></g></g><g transform="translate(283.706 254.285)"><g transform="translate(0 0)" clip-path="url(#l)"><rect width="13.538" height="13.544" transform="translate(5.013 -4.883) rotate(47.076)" fill="#f6f6f6"/></g></g><g transform="translate(271.491 313.505)"><g transform="translate(0 0)" clip-path="url(#m)"><rect width="22.46" height="22.456" transform="translate(8.407 -8.108) rotate(47.075)" fill="#f6f6f6"/></g></g><g transform="translate(259.287 372.723)"><g transform="translate(0 0)" clip-path="url(#n)"><rect width="31.189" height="31.187" transform="translate(11.799 -11.064) rotate(47.075)" fill="#f6f6f6"/></g></g><g transform="translate(247.089 431.94)"><g transform="translate(0 0)" clip-path="url(#o)"><rect width="40.139" height="40.148" transform="matrix(0.681, 0.732, -0.732, 0.681, 15.164, -14.216)" fill="#f6f6f6"/></g></g><g transform="translate(357.486 203.346)"><g transform="translate(0 0)" clip-path="url(#p)"><rect width="6.924" height="6.926" transform="translate(2.562 -2.615) rotate(47.076)" fill="#f6f6f6"/></g></g><g transform="translate(345.279 262.562)"><g transform="translate(0 0)" clip-path="url(#q)"><rect width="15.668" height="15.671" transform="translate(5.959 -5.592) rotate(47.075)" fill="#f6f6f6"/></g></g><g transform="translate(333.072 321.78)"><g transform="translate(0 0)" clip-path="url(#r)"><rect width="24.67" height="24.673" transform="translate(9.263 -8.848) rotate(47.075)" fill="#f6f6f6"/></g></g><g transform="translate(320.864 380.996)"><g transform="translate(0 0)" clip-path="url(#s)"><rect width="33.426" height="33.427" transform="matrix(0.681, 0.732, -0.732, 0.681, 12.653, -11.848)" fill="#f6f6f6"/></g></g><g transform="translate(308.658 440.222)"><g transform="translate(0 0)" clip-path="url(#t)"><rect width="42.32" height="42.325" transform="translate(15.996 -14.982) rotate(47.075)" fill="#f6f6f6"/></g></g><g transform="translate(430.475 151.63)"><g transform="translate(0 0)" clip-path="url(#u)"><rect width="2.304" height="2.306" transform="translate(0.863 -0.875) rotate(47.075)" fill="#f6f6f6"/></g></g><g transform="translate(418.275 210.84)"><g transform="translate(0 0)" clip-path="url(#v)"><rect width="11.399" height="11.392" transform="translate(4.157 -4.259) rotate(47.076)" fill="#f6f6f6"/></g></g><g transform="translate(406.067 270.048)"><g transform="translate(0 0)" clip-path="url(#w)"><rect width="20.071" height="20.074" transform="translate(7.581 -7.106) rotate(47.075)" fill="#f6f6f6"/></g></g><g transform="translate(393.863 329.27)"><g transform="translate(0 0)" clip-path="url(#x)"><rect width="29.12" height="29.123" transform="translate(10.989 -10.414) rotate(47.075)" fill="#f6f6f6"/></g></g><g transform="translate(382.437 389.269)"><g transform="translate(0 0)" clip-path="url(#y)"><rect width="35.683" height="35.687" transform="translate(13.518 -12.65) rotate(47.075)" fill="#f6f6f6"/></g></g><g transform="translate(370.231 448.487)"><g transform="translate(0 0)" clip-path="url(#z)"><rect width="44.559" height="44.562" transform="translate(16.877 -15.779) rotate(47.075)" fill="#f6f6f6"/></g></g><g transform="translate(491.265 159.105)"><g transform="translate(0 0)" clip-path="url(#aa)"><rect width="6.936" height="6.938" transform="matrix(0.681, 0.732, -0.732, 0.681, 2.567, -2.618)" fill="#f6f6f6"/></g></g><g transform="translate(479.06 218.329)"><g clip-path="url(#ab)"><rect width="15.679" height="15.683" transform="matrix(0.681, 0.732, -0.732, 0.681, 5.958, -5.606)" fill="#f6f6f6"/></g></g><g transform="translate(466.86 277.541)"><g transform="translate(0 0)" clip-path="url(#ac)"><rect width="24.661" height="24.664" transform="matrix(0.681, 0.732, -0.732, 0.681, 9.262, -8.84)" fill="#f6f6f6"/></g></g><g transform="translate(455.438 337.546)"><g transform="translate(0 0)" clip-path="url(#ad)"><rect width="31.2" height="31.197" transform="matrix(0.681, 0.732, -0.732, 0.681, 11.815, -11.086)" fill="#f6f6f6"/></g></g><g transform="translate(443.228 396.76)"><g transform="translate(0 0)" clip-path="url(#ae)"><rect width="40.121" height="40.127" transform="translate(15.154 -14.209) rotate(47.075)" fill="#f6f6f6"/></g></g><g transform="translate(563.478 106.595)"><g transform="translate(0 0)" clip-path="url(#af)"><rect width="4.627" height="4.628" transform="translate(1.712 -1.748) rotate(47.075)" fill="#f6f6f6"/></g></g><g transform="translate(551.27 165.805)"><g transform="translate(0 0)" clip-path="url(#ag)"><rect width="13.566" height="13.573" transform="translate(5.019 -4.906) rotate(47.075)" fill="#f6f6f6"/></g></g><g transform="translate(539.846 225.823)"><g transform="translate(0 0)" clip-path="url(#ah)"><rect width="20.048" height="20.051" transform="translate(7.578 -7.105) rotate(47.075)" fill="#f6f6f6"/></g></g><g transform="translate(527.638 285.026)"><g transform="translate(0 0)" clip-path="url(#ai)"><rect width="29.126" height="29.129" transform="matrix(0.681, 0.732, -0.732, 0.681, 10.984, -10.42)" fill="#f6f6f6"/></g></g><g transform="translate(516.224 345.032)"><g transform="translate(0 0)" clip-path="url(#aj)"><rect width="35.671" height="35.676" transform="translate(13.515 -12.649) rotate(47.075)" fill="#f6f6f6"/></g></g><g transform="translate(504.017 404.247)"><g transform="translate(0 0)" clip-path="url(#ak)"><rect width="44.554" height="44.558" transform="translate(16.871 -15.777) rotate(47.075)" fill="#f6f6f6"/></g></g><g transform="translate(634.904 53.302)"><g transform="translate(0 0)" clip-path="url(#al)"><rect width="4.607" height="4.608" transform="matrix(0.681, 0.732, -0.732, 0.681, 1.695, -1.741)" fill="#f6f6f6"/></g></g><g transform="translate(623.48 113.294)"><g transform="translate(0 0)" clip-path="url(#am)"><rect width="11.42" height="11.413" transform="translate(4.157 -4.268) rotate(47.076)" fill="#f6f6f6"/></g></g><g transform="translate(612.058 173.301)"><g transform="translate(0 0)" clip-path="url(#an)"><rect width="17.903" height="17.911" transform="translate(6.814 -6.375) rotate(47.075)" fill="#f6f6f6"/></g></g><g transform="translate(599.858 232.519)"><g transform="translate(0 0)" clip-path="url(#ao)"><rect width="26.937" height="26.942" transform="matrix(0.681, 0.732, -0.732, 0.681, 10.107, -9.672)" fill="#f6f6f6"/></g></g><g transform="translate(588.425 292.515)"><g transform="translate(0 0)" clip-path="url(#ap)"><rect width="33.446" height="33.447" transform="translate(12.659 -11.864) rotate(47.075)" fill="#f6f6f6"/></g></g><g transform="translate(577.016 352.527)"><g transform="translate(0 0)" clip-path="url(#aq)"><rect width="40.108" height="40.113" transform="translate(15.146 -14.201) rotate(47.075)" fill="#f6f6f6"/></g></g><g transform="translate(565.592 412.517)"><g transform="translate(0 0)" clip-path="url(#ar)"><rect width="46.79" height="46.792" transform="translate(17.759 -16.573) rotate(47.075)" fill="#f6f6f6"/></g></g><g transform="translate(706.318 0)"><g clip-path="url(#as)"><rect width="4.618" height="4.62" transform="translate(1.694 -1.75) rotate(47.075)" fill="#f6f6f6"/></g></g><g transform="translate(694.905 60.001)"><g transform="translate(0 0)" clip-path="url(#at)"><rect width="11.299" height="11.301" transform="translate(4.149 -4.115) rotate(47.075)" fill="#f6f6f6"/></g></g><g transform="translate(683.483 119.994)"><g transform="translate(0 0)" clip-path="url(#au)"><rect width="17.916" height="17.923" transform="matrix(0.681, 0.732, -0.732, 0.681, 6.803, -6.371)" fill="#f6f6f6"/></g></g><g transform="translate(672.06 179.997)"><g transform="translate(0 0)" clip-path="url(#av)"><rect width="24.683" height="24.685" transform="translate(9.258 -8.86) rotate(47.075)" fill="#f6f6f6"/></g></g><g transform="translate(660.64 240.004)"><g clip-path="url(#aw)"><rect width="31.205" height="31.201" transform="translate(11.81 -11.081) rotate(47.075)" fill="#f6f6f6"/></g></g><g transform="translate(649.214 300.008)"><g transform="translate(0 0)" clip-path="url(#ax)"><rect width="37.951" height="37.959" transform="matrix(0.681, 0.732, -0.732, 0.681, 14.374, -13.47)" fill="#f6f6f6"/></g></g><g transform="translate(637.803 360.003)"><g transform="translate(0 0)" clip-path="url(#ay)"><rect width="44.557" height="44.56" transform="translate(16.866 -15.77) rotate(47.075)" fill="#f6f6f6"/></g></g><g transform="translate(626.381 420.004)"><g transform="translate(0 0)" clip-path="url(#az)"><rect width="51.221" height="51.221" transform="matrix(0.681, 0.732, -0.732, 0.681, 19.383, -18.137)" fill="#f6f6f6"/></g></g><g transform="translate(766.325 6.699)"><g clip-path="url(#ba)"><rect width="11.312" height="11.319" transform="matrix(0.681, 0.732, -0.732, 0.681, 4.168, -4.111)" fill="#f6f6f6"/></g></g><g transform="translate(754.896 66.694)"><g transform="translate(0 0)" clip-path="url(#bb)"><rect width="17.925" height="17.933" transform="matrix(0.681, 0.732, -0.732, 0.681, 6.799, -6.376)" fill="#f6f6f6"/></g></g><g transform="translate(743.484 126.702)"><g transform="translate(0 0)" clip-path="url(#bc)"><rect width="24.689" height="24.69" transform="translate(9.246 -8.87) rotate(47.075)" fill="#f6f6f6"/></g></g><g transform="translate(732.06 186.702)"><g transform="translate(0 0)" clip-path="url(#bd)"><rect width="31.194" height="31.191" transform="matrix(0.681, 0.732, -0.732, 0.681, 11.801, -11.066)" fill="#f6f6f6"/></g></g><g transform="translate(720.638 246.711)"><g transform="translate(0 0)" clip-path="url(#be)"><rect width="37.945" height="37.954" transform="matrix(0.681, 0.732, -0.732, 0.681, 14.361, -13.463)" fill="#f6f6f6"/></g></g><g transform="translate(709.217 306.712)"><g transform="translate(0 0)" clip-path="url(#bf)"><rect width="44.548" height="44.55" transform="matrix(0.681, 0.732, -0.732, 0.681, 16.881, -15.779)" fill="#f6f6f6"/></g></g><g transform="translate(698.592 367.499)"><g transform="translate(0 0)" clip-path="url(#bg)"><rect width="49.026" height="49.027" transform="matrix(0.681, 0.732, -0.732, 0.681, 18.574, -17.377)" fill="#f6f6f6"/></g></g><g transform="translate(687.17 427.501)"><g transform="translate(0 0)" clip-path="url(#bh)"><rect width="55.689" height="55.694" transform="translate(21.078 -19.72) rotate(47.075)" fill="#f6f6f6"/></g></g><g transform="translate(781.429 254.196)"><g transform="translate(0 0)" clip-path="url(#bi)"><rect width="42.325" height="42.331" transform="translate(15.998 -14.982) rotate(47.075)" fill="#f6f6f6"/></g></g><g transform="translate(770.006 314.197)"><g transform="translate(0 0)" clip-path="url(#bj)"><rect width="49.035" height="49.039" transform="matrix(0.681, 0.732, -0.732, 0.681, 18.58, -17.39)" fill="#f6f6f6"/></g></g><g transform="translate(759.382 374.984)"><g transform="translate(0 0)" clip-path="url(#bk)"><rect width="53.456" height="53.459" transform="matrix(0.681, 0.732, -0.732, 0.681, 20.237, -18.926)" fill="#f6f6f6"/></g></g><g transform="translate(747.958 434.981)"><g transform="translate(0 0)" clip-path="url(#bl)"><rect width="60.089" height="60.09" transform="matrix(0.681, 0.732, -0.732, 0.681, 22.762, -21.247)" fill="#f6f6f6"/></g></g></svg>